<?xml version="1.0" encoding="utf-8"?>
<!DOCTYPE svg PUBLIC "-//W3C//DTD SVG 1.1//EN" "http://www.w3.org/Graphics/SVG/1.1/DTD/svg11.dtd">
<svg version="1.1" id="图形" xmlns="http://www.w3.org/2000/svg" xmlns:xlink="http://www.w3.org/1999/xlink" x="0px" y="0px" width="1095px" height="1024px" viewBox="0 0 1095 1024" enable-background="new 0 0 1095 1024" xml:space="preserve">
  <path fill="#787471" d="M979.194311-211.886222 114.4832-211.886222C51.655111-211.886222 0.705422-160.936533 0.705422-98.108444L0.705422 536.908089C0.705422 524.347022 10.899911 514.152533 23.460978 514.152533L543.311644 514.152533C544.517689 513.970489 545.5872 513.447111 546.838756 513.447111 548.090311 513.447111 549.159822 513.970489 550.365867 514.152533L1070.216533 514.152533C1082.7776 514.152533 1092.972089 524.347022 1092.972089 536.908089L1092.972089-98.108444C1092.972089-160.936533 1042.0224-211.886222 979.194311-211.886222ZM1070.216533 559.663644 569.594311 559.663644 569.594311 695.491556C569.594311 708.052622 559.399822 718.247111 546.838756 718.247111 534.277689 718.247111 524.0832 708.052622 524.0832 695.491556L524.0832 559.663644 23.460978 559.663644C10.899911 559.663644 0.705422 549.491911 0.705422 536.908089L0.705422 542.096356C0.182044 545.532444 0.182044 548.877511 0.705422 552.3136L0.705422 558.2528 1.865956 558.2528C3.4816 562.985956 5.893689 567.491556 9.693867 571.268978L105.995378 798.665244C112.935822 805.628444 118.101333 808.7232 123.312356 808.404622 127.522133 809.724444 132.141511 810.498133 137.056711 810.498133L956.256711 810.498133C966.951822 810.498133 976.099556 806.857244 982.357333 801.486933 984.177778 800.462933 986.020978 799.143111 987.909689 797.2544L1083.710578 571.678578C1087.601778 567.810133 1089.991111 563.145244 1091.584 558.2528L1092.972089 558.2528 1092.972089 551.198578C1093.199644 548.945778 1093.199644 546.829511 1092.972089 544.576711L1092.972089 536.908089C1092.972089 549.491911 1082.7776 559.663644 1070.216533 559.663644Z" transform="translate(0, 812) scale(1, -1)"/>
</svg>
