<?xml version="1.0" encoding="utf-8"?>
<!DOCTYPE svg PUBLIC "-//W3C//DTD SVG 1.1//EN" "http://www.w3.org/Graphics/SVG/1.1/DTD/svg11.dtd">
<svg version="1.1" id="图形" xmlns="http://www.w3.org/2000/svg" xmlns:xlink="http://www.w3.org/1999/xlink" x="0px" y="0px" width="1024px" height="1024px" viewBox="0 0 1024 1024" enable-background="new 0 0 1024 1024" xml:space="preserve">
  <path fill="#787471" d="M785.956 631.878 666.149 631.878c2.385-7.721 3.694-15.95 3.694-24.428 0-40.399-29.371-75.275-64.263-75.275L415.996 532.175c-36.743 0-66.113 34.876-66.113 75.275 0 8.478 1.309 16.707 3.695 24.428L216.967 631.878c-46.219 0-83.685-37.465-83.685-83.669l0-599.127c0-46.204 37.465-83.669 83.685-83.669l568.989 0c46.203 0 83.667 37.465 83.667 83.669L869.623 548.209C869.623 594.413 832.159 631.878 785.956 631.878zM686.785 99.319 318.882 99.319c-13.555 0-25.008 11.468-25.008 25.007 0 13.555 11.453 25.009 25.008 25.009L685.75 149.335c13.54 0 25.009-10.418 26.059-25.009C711.809 110.787 700.341 99.319 686.785 99.319zM686.785 249.021 318.882 249.021c-13.555 0-25.008 11.47-25.008 25.008 0 13.556 11.453 25.01 25.008 25.01L685.75 299.039c13.54 0 25.009-10.419 26.059-25.01C711.809 260.491 700.341 249.021 686.785 249.021zM686.785 383.1 318.882 383.1c-13.555 0-25.008 11.453-25.008 24.992 0 13.555 11.453 25.008 25.008 25.008l367.903 0c13.556 0 25.023-11.453 25.023-25.008C711.809 394.552 700.341 383.1 686.785 383.1zM420.687 564.729l176.5 0c19.8 0 36.477 19.799 36.477 42.721 0 22.922-16.677 42.721-37.513 42.721L420.687 650.171c-20.851 0-37.512-19.799-37.512-42.721C383.176 584.529 399.837 564.729 420.687 564.729z" transform="translate(0, 812) scale(1, -1)"/>
</svg>
