<?xml version="1.0" encoding="utf-8"?>
<!DOCTYPE svg PUBLIC "-//W3C//DTD SVG 1.1//EN" "http://www.w3.org/Graphics/SVG/1.1/DTD/svg11.dtd">
<svg version="1.1" id="图形" xmlns="http://www.w3.org/2000/svg" xmlns:xlink="http://www.w3.org/1999/xlink" x="0px" y="0px" width="1025px" height="1024px" viewBox="0 0 1025 1024" enable-background="new 0 0 1025 1024" xml:space="preserve">
  <path fill="#787471" d="M146.28673-10.857143l0-109.714286q0-7.972571-5.12-13.165714t-13.165714-5.12l-109.714286 0q-7.972571 0-13.165714 5.12t-5.12 13.165714l0 109.714286q0 7.972571 5.12 13.165714t13.165714 5.12l109.714286 0q7.972571 0 13.165714-5.12t5.12-13.165714zM365.715302 62.285714l0-182.857143q0-7.972571-5.12-13.165714t-13.165714-5.12l-109.714286 0q-7.972571 0-13.165714 5.12t-5.12 13.165714l0 182.857143q0 7.972571 5.12 13.165714t13.165714 5.12l109.714286 0q7.972571 0 13.165714-5.12t5.12-13.165714zM585.143873 208.571429l0-329.142857q0-7.972571-5.12-13.165714t-13.165714-5.12l-109.714286 0q-7.972571 0-13.165714 5.12t-5.12 13.165714l0 329.142857q0 7.972571 5.12 13.165714t13.165714 5.12l109.714286 0q7.972571 0 13.165714-5.12t5.12-13.165714zM804.572444 428l0-548.571429q0-7.972571-5.12-13.165714t-13.165714-5.12l-109.714286 0q-7.972571 0-13.165714 5.12t-5.12 13.165714l0 548.571429q0 7.972571 5.12 13.165714t13.165714 5.12l109.714286 0q7.972571 0 13.165714-5.12t5.12-13.165714zM1024.001016 720.571429l0-841.142857q0-7.972571-5.12-13.165714t-13.165714-5.12l-109.714286 0q-7.972571 0-13.165714 5.12t-5.12 13.165714l0 841.142857q0 7.972571 5.12 13.165714t13.165714 5.12l109.714286 0q7.972571 0 13.165714-5.12t5.12-13.165714z" transform="translate(0, 812) scale(1, -1)"/>
</svg>
